<?xml version="1.0" encoding="UTF-8" standalone="no"?>
<svg
   xmlns:dc="http://purl.org/dc/elements/1.1/"
   xmlns:cc="http://creativecommons.org/ns#"
   xmlns:rdf="http://www.w3.org/1999/02/22-rdf-syntax-ns#"
   xmlns:svg="http://www.w3.org/2000/svg"
   xmlns="http://www.w3.org/2000/svg"
   xmlns:sodipodi="http://sodipodi.sourceforge.net/DTD/sodipodi-0.dtd"
   xmlns:inkscape="http://www.inkscape.org/namespaces/inkscape"
   aria-hidden="true"
   focusable="false"
   data-prefix="far"
   data-icon="check-circle"
   class="svg-inline--fa fa-check-circle fa-w-16"
   role="img"
   viewBox="0 0 512 512"
   version="1.1"
   id="svg4"
   sodipodi:docname="check.svg"
   inkscape:version="1.0.2-2 (e86c870879, 2021-01-15)">
  <metadata
     id="metadata10">
    <rdf:RDF>
      <cc:Work
         rdf:about="">
        <dc:format>image/svg+xml</dc:format>
        <dc:type
           rdf:resource="http://purl.org/dc/dcmitype/StillImage" />
      </cc:Work>
    </rdf:RDF>
  </metadata>
  <defs
     id="defs8" />
  <sodipodi:namedview
     pagecolor="#ffffff"
     bordercolor="#666666"
     borderopacity="1"
     objecttolerance="10"
     gridtolerance="10"
     guidetolerance="10"
     inkscape:pageopacity="0"
     inkscape:pageshadow="2"
     inkscape:window-width="1360"
     inkscape:window-height="705"
     id="namedview6"
     showgrid="false"
     inkscape:zoom="0.484375"
     inkscape:cx="4.0664699"
     inkscape:cy="226.58973"
     inkscape:window-x="-8"
     inkscape:window-y="-8"
     inkscape:window-maximized="1"
     inkscape:current-layer="svg4"
     inkscape:document-rotation="0" />
  <circle
     style="fill:#3737c8;fill-opacity:0.09638554;stroke-width:0.793548"
     id="path830"
     cx="256"
     cy="256"
     r="238.06453" />
  <path
     fill="currentColor"
     d="m 256,102.55484 c -84.74566,0 -153.44516,68.6995 -153.44516,153.44516 0,84.74567 68.6995,153.44516 153.44516,153.44516 84.74566,0 153.44516,-68.69949 153.44516,-153.44516 0,-84.74567 -68.6995,-153.44517 -153.44516,-153.44516 z m 0,29.69907 c 68.38952,0 123.7461,55.34606 123.7461,123.7461 0,68.38952 -55.34607,123.74609 -123.7461,123.74609 -68.38952,0 -123.74609,-55.34607 -123.74609,-123.74609 0,-68.38953 55.34605,-123.7461 123.74609,-123.7461 m 86.74848,80.60017 -13.9437,-14.05632 c -2.88761,-2.91113 -7.58873,-2.93031 -10.49985,-0.0421 l -87.4588,86.75591 -36.99513,-37.29522 c -2.88762,-2.91113 -7.58873,-2.93031 -10.49985,-0.0428 l -14.05694,13.94374 c -2.91113,2.88763 -2.93031,7.58873 -0.0421,10.50047 l 56.16898,56.62374 c 2.88761,2.91113 7.58872,2.93032 10.49985,0.0421 l 106.7861,-105.92905 c 2.91051,-2.88824 2.92906,-7.58935 0.0414,-10.50048 z"
     id="path2"
     style="fill:#3737c8;stroke-width:0.61873" />
</svg>
