<?xml version="1.0" encoding="UTF-8" standalone="no"?>
<svg
   xmlns:dc="http://purl.org/dc/elements/1.1/"
   xmlns:cc="http://creativecommons.org/ns#"
   xmlns:rdf="http://www.w3.org/1999/02/22-rdf-syntax-ns#"
   xmlns:svg="http://www.w3.org/2000/svg"
   xmlns="http://www.w3.org/2000/svg"
   xmlns:sodipodi="http://sodipodi.sourceforge.net/DTD/sodipodi-0.dtd"
   xmlns:inkscape="http://www.inkscape.org/namespaces/inkscape"
   viewBox="0 0 400 400"
   version="1.1"
   id="svg261"
   sodipodi:docname="header.svg"
   width="400"
   height="400"
   inkscape:version="1.0.2-2 (e86c870879, 2021-01-15)">
  <metadata
     id="metadata265">
    <rdf:RDF>
      <cc:Work
         rdf:about="">
        <dc:format>image/svg+xml</dc:format>
        <dc:type
           rdf:resource="http://purl.org/dc/dcmitype/StillImage" />
        <dc:title></dc:title>
      </cc:Work>
    </rdf:RDF>
  </metadata>
  <sodipodi:namedview
     pagecolor="#ffffff"
     bordercolor="#666666"
     borderopacity="1"
     objecttolerance="10"
     gridtolerance="10"
     guidetolerance="10"
     inkscape:pageopacity="0"
     inkscape:pageshadow="2"
     inkscape:window-width="1360"
     inkscape:window-height="705"
     id="namedview263"
     showgrid="false"
     inkscape:zoom="0.992"
     inkscape:cx="250"
     inkscape:cy="169.35484"
     inkscape:window-x="-8"
     inkscape:window-y="-8"
     inkscape:window-maximized="1"
     inkscape:current-layer="svg261" />
  <defs
     id="defs23">
    <clipPath
       id="freepik--clip-path--inject-1--inject-46">
      <rect
         x="93.599998"
         y="182.78"
         width="305.57999"
         height="172.69"
         style="fill:#ffffff;stroke:#263238;stroke-width:0.690452px;stroke-miterlimit:10"
         id="rect2" />
    </clipPath>
    <clipPath
       id="freepik--clip-path-2--inject-1--inject-46">
      <path
         d="m 83.48,299.75 a 24,24 0 0 1 -2.65,6.3 c -2,3.31 -2.82,5.62 -8.94,5.79 -6.12,0.17 -9.27,5.16 -11.89,20.03 -2.62,14.87 -4.14,31.29 0.33,41.72 4.47,10.43 17.67,9.41 26.29,6.29 8.62,-3.12 10.6,-12.91 10.76,-23.5 0.16,-10.59 0.17,-27.32 -1.49,-35.77 -1.66,-8.45 -6.45,-10.26 -8.61,-10.92 -2.16,-0.66 0.67,-4.64 0.67,-4.64 z"
         style="fill:#ffffff;stroke:#263238;stroke-width:0.48509px;stroke-linecap:round;stroke-linejoin:round"
         id="path5" />
    </clipPath>
    <clipPath
       id="freepik--clip-path-3--inject-1--inject-46">
      <path
         d="m 89.2,310.44 a 12.79,12.79 0 0 0 -1.92,-0.75 c -2.15,-0.66 0.67,-4.64 0.67,-4.64 l -4.47,-5.3 a 24,24 0 0 1 -2.65,6.3 c -1.69,2.81 -2.55,4.9 -6.53,5.57 a 18.29,18.29 0 0 1 2.72,6 c 1,4.31 3.14,11.26 7.12,9.61 3.78,-1.57 6.65,-10.64 5.06,-16.79 z"
         style="fill:#ffffff;stroke:#263238;stroke-width:0.48509px;stroke-linecap:round;stroke-linejoin:round"
         id="path8" />
    </clipPath>
    <clipPath
       id="freepik--clip-path-4--inject-1--inject-46">
      <path
         d="m 74.3,311.62 a 25.36,25.36 0 0 1 -5.56,0.05 12.19,12.19 0 0 0 -9.27,3.33 c -2.65,2.64 -5,11.25 -6,13.41 -1,2.16 -1.32,3.14 -1.32,3.14 l 12.25,5.3 5.13,-14.57"
         style="fill:#ffffff;stroke:#263238;stroke-width:0.48509px;stroke-linecap:round;stroke-linejoin:round"
         id="path11" />
    </clipPath>
    <clipPath
       id="freepik--clip-path-5--inject-1--inject-46">
      <ellipse
         cx="90.660004"
         cy="293.10999"
         rx="14.49"
         ry="8.3199997"
         transform="rotate(-75.87,90.660564,293.10638)"
         style="fill:#ffffff;stroke:#263238;stroke-width:0.48509px;stroke-linecap:round;stroke-linejoin:round"
         id="ellipse14" />
    </clipPath>
    <clipPath
       id="freepik--clip-path-6--inject-1--inject-46">
      <rect
         x="151.78"
         y="268.26999"
         width="69.919998"
         height="113.13"
         style="fill:#ffffff;stroke:#263238;stroke-width:0.52825px;stroke-miterlimit:10"
         id="rect17" />
    </clipPath>
    <clipPath
       id="freepik--clip-path-7--inject-1--inject-46">
      <rect
         x="268.62"
         y="247.39"
         width="101.89"
         height="188.71001"
         transform="rotate(90,319.56,341.75)"
         style="fill:#ffffff;stroke:#263238;stroke-width:0.651505px;stroke-miterlimit:10"
         id="rect20" />
    </clipPath>
  </defs>
  <!--Devices-->
  <g
     id="g1212"
     transform="matrix(0.93408917,0,0,0.92842556,-32.5204,-48.777181)">
    <g
       id="freepik--background-simple--inject-1--inject-46">
      <path
         d="M 417.92,100.05 C 374.6,58.48 312.9,69.89 279,101.32 c -24.77,23 -63.79,56.35 -94,54.9 C 155.05,154.77 120.81,134 83.6,150 46.88,165.76 36.85,217.89 53.45,257.75 c 16.66,40 77.45,72.51 151,102.83 a 215,215 0 0 0 85.36,16.68 c 0,0 66.58,-0.69 91.6,-16.7 19.59,-12.56 27.98,-20.81 49.16,-52.78 16,-24.2 26.72,-58.22 27.92,-91.18 1.51,-40.27 -8.21,-85.49 -40.57,-116.55 z"
         style="fill:#7e57c2"
         id="path25" />
      <path
         d="M 417.92,100.05 C 374.6,58.48 312.9,69.89 279,101.32 c -24.77,23 -63.79,56.35 -94,54.9 C 155.05,154.77 120.81,134 83.6,150 46.88,165.76 36.85,217.89 53.45,257.75 c 16.66,40 77.45,72.51 151,102.83 a 215,215 0 0 0 85.36,16.68 c 0,0 66.58,-0.69 91.6,-16.7 19.59,-12.56 27.98,-20.81 49.16,-52.78 16,-24.2 26.72,-58.22 27.92,-91.18 1.51,-40.27 -8.21,-85.49 -40.57,-116.55 z"
         style="opacity:0.8;fill:#ffffff"
         id="path27" />
    </g>
    <g
       id="freepik--Shadow--inject-1--inject-46">
      <ellipse
         cx="243.41"
         cy="401.73001"
         rx="187.14999"
         ry="11.13"
         style="fill:#7e57c2"
         id="ellipse30" />
      <ellipse
         cx="243.41"
         cy="401.73001"
         rx="187.14999"
         ry="11.13"
         style="opacity:0.6;fill:#ffffff"
         id="ellipse32" />
    </g>
    <g
       id="freepik--Laptop--inject-1--inject-46">
      <path
         d="m 90.56,165.91 h 311.65 a 10.46,10.46 0 0 1 10.46,10.46 v 205.4 H 80.11 v -205.4 a 10.46,10.46 0 0 1 10.45,-10.46 z"
         style="fill:#7e57c2;stroke:#263238;stroke-width:0.920603px;stroke-miterlimit:10"
         id="path35" />
      <rect
         x="93.599998"
         y="182.78"
         width="305.57999"
         height="172.69"
         style="fill:#ffffff"
         id="rect37" />
      <g
         clip-path="url(#freepik--clip-path--inject-1--inject-46)"
         id="g41">
        <polygon
           points="146.41,355.47 399.18,355.47 399.18,208.06 "
           style="opacity:0.4;mix-blend-mode:multiply;fill:#7e57c2"
           id="polygon39" />
      </g>
      <rect
         x="93.599998"
         y="182.78"
         width="305.57999"
         height="172.69"
         style="fill:none;stroke:#263238;stroke-width:0.690452px;stroke-miterlimit:10"
         id="rect43" />
      <rect
         x="132.87"
         y="371.38"
         width="228.55"
         height="11.26"
         style="fill:#7e57c2;stroke:#263238;stroke-width:0.691688px;stroke-miterlimit:10"
         id="rect45" />
      <rect
         x="132.87"
         y="376.81"
         width="228.55"
         height="5.8400002"
         style="fill:#7e57c2;stroke:#263238;stroke-width:0.691688px;stroke-miterlimit:10"
         id="rect47" />
      <path
         d="m 53.21,389.32 c 0,0 3.76,4.59 15,8.34 h 357.86 c 0,0 8.34,-2.09 12.1,-7.93 z"
         style="fill:#7e57c2;stroke:#263238;stroke-width:0.920603px;stroke-miterlimit:10"
         id="path49" />
      <rect
         x="52.450001"
         y="381.10001"
         width="386.53"
         height="8.7700005"
         rx="2.7"
         style="fill:#7e57c2;stroke:#263238;stroke-width:0.920603px;stroke-miterlimit:10"
         id="rect51" />
      <circle
         cx="246.32001"
         cy="172.44"
         r="2.9200001"
         style="fill:#263238"
         id="circle53" />
      <path
         d="m 207.74,169.52 h -73 a 1.46,1.46 0 0 1 -1.46,-1.46 v 0 a 1.46,1.46 0 0 1 1.46,-1.46 h 73 a 1.47,1.47 0 0 1 1.46,1.46 v 0 a 1.46,1.46 0 0 1 -1.46,1.46 z"
         style="fill:#7e57c2;stroke:#263238;stroke-width:0.691688px;stroke-miterlimit:10"
         id="path55" />
      <path
         d="m 356.63,169.52 h -73 a 1.46,1.46 0 0 1 -1.46,-1.46 v 0 a 1.47,1.47 0 0 1 1.46,-1.46 h 73 a 1.46,1.46 0 0 1 1.46,1.46 v 0 a 1.46,1.46 0 0 1 -1.46,1.46 z"
         style="fill:#7e57c2;stroke:#263238;stroke-width:0.691688px;stroke-miterlimit:10"
         id="path57" />
      <path
         d="m 409.81,226.66 v 0 a 0.84,0.84 0 0 1 -0.84,-0.83 v -24.19 a 0.85,0.85 0 0 1 0.84,-0.84 v 0 a 0.84,0.84 0 0 1 0.83,0.84 v 24.19 a 0.83,0.83 0 0 1 -0.83,0.83 z"
         style="fill:#7e57c2;stroke:#263238;stroke-width:0.691688px;stroke-miterlimit:10"
         id="path59" />
      <path
         d="m 83.24,226.66 v 0 a 0.83,0.83 0 0 1 -0.83,-0.83 v -24.19 a 0.84,0.84 0 0 1 0.83,-0.84 v 0 a 0.85,0.85 0 0 1 0.84,0.84 v 24.19 a 0.84,0.84 0 0 1 -0.84,0.83 z"
         style="fill:#7e57c2;stroke:#263238;stroke-width:0.691688px;stroke-miterlimit:10"
         id="path61" />
    </g>
    <g
       id="freepik--plants-1--inject-1--inject-46">
      <path
         d="m 311.81,233 c 1.42,-1 2.95,-2.78 3,-4.66 a 3.16,3.16 0 0 0 -3.33,-3.29 c -2.65,0.24 -5,4.4 -5.56,6.71 0,0.2 -0.4,3.41 -0.35,3.4 0.05,-0.01 4.56,-0.97 6.24,-2.16 z"
         style="fill:#263238"
         id="path64" />
      <path
         d="m 288.92,283.14 a 2.56,2.56 0 0 0 -3.27,-2 c -2,0.69 -3.13,4.44 -3.1,6.38 0,0.12 0.19,1.58 0.3,2.32 -0.23,-0.57 -0.45,-1.15 -0.68,-1.75 -0.33,-0.87 -0.65,-1.79 -1,-2.69 l -0.45,-1.43 c -0.16,-0.48 -0.26,-1 -0.39,-1.44 -0.18,-0.72 -0.33,-1.47 -0.48,-2.22 a 16.24,16.24 0 0 0 4.58,-2.08 c 1.09,-1 2.2,-2.47 2.09,-4 a 2.56,2.56 0 0 0 -2.93,-2.44 c -2.13,0.38 -3.77,3.92 -4,5.84 0,0.06 0,0.47 0,1 -0.12,-0.74 -0.25,-1.47 -0.35,-2.22 -0.3,-2.12 -0.53,-4.29 -0.77,-6.46 -0.05,-0.46 -0.11,-0.91 -0.16,-1.36 a 17.27,17.27 0 0 0 4.72,-2.13 c 1.09,-1 2.2,-2.47 2.09,-4 a 2.57,2.57 0 0 0 -2.93,-2.44 c -2.13,0.38 -3.77,3.92 -4,5.84 0,0.07 0,0.56 0,1.1 -0.15,-1.17 -0.31,-2.35 -0.51,-3.51 a 46,46 0 0 0 -1.37,-5.89 c 0.27,-0.08 3.64,-1.1 4.87,-2.17 1.08,-1 2.2,-2.47 2.08,-4 a 2.56,2.56 0 0 0 -2.93,-2.44 c -2.13,0.38 -3.77,3.92 -4,5.84 0,0.13 -0.06,1.91 -0.05,2.54 a 0.19,0.19 0 0 1 0,-0.07 33.68,33.68 0 0 0 -2.37,-5.44 44.63,44.63 0 0 0 -2.78,-4.52 c -0.93,-1.36 -1.86,-2.54 -2.7,-3.58 -0.45,-0.56 -0.88,-1.07 -1.28,-1.53 v 0 c 0,0 -0.72,-2.51 -0.79,-2.67 -0.77,-1.77 -3.3,-4.74 -5.46,-4.52 a 2.55,2.55 0 0 0 -2.16,3.13 c 0.3,1.5 1.78,2.65 3.09,3.28 a 16.73,16.73 0 0 0 5.15,0.77 c 0.41,0.5 0.84,1 1.3,1.62 0.81,1.06 1.72,2.26 2.61,3.63 0.24,0.37 0.48,0.77 0.72,1.15 -0.54,-0.56 -1.29,-1.33 -1.38,-1.39 -1.5,-1.22 -5.11,-2.69 -6.92,-1.51 a 2.57,2.57 0 0 0 -0.48,3.79 5.36,5.36 0 0 0 4.17,1.53 c 1.5,0 4.34,-1.4 5,-1.7 0.53,0.86 1,1.76 1.53,2.73 a 33,33 0 0 1 2.22,5.42 c 0,0.11 0,0.23 0.08,0.34 -0.22,-0.33 -1.55,-2 -1.66,-2.13 -1.36,-1.38 -4.79,-3.24 -6.72,-2.26 a 2.56,2.56 0 0 0 -0.89,3.71 c 0.82,1.28 2.62,1.83 4.06,1.94 1.66,0.13 5.1,-1.14 5.23,-1.19 a 45.42,45.42 0 0 1 1.2,5.73 c 0.21,1.43 0.37,2.88 0.51,4.35 -0.29,-0.42 -1.54,-2 -1.64,-2.1 -1.36,-1.38 -4.79,-3.23 -6.72,-2.26 a 2.56,2.56 0 0 0 -0.89,3.71 c 0.82,1.29 2.62,1.83 4.06,1.94 1.62,0.13 4.92,-1.07 5.2,-1.17 0.07,0.66 0.13,1.33 0.19,2 0.2,2.18 0.38,4.36 0.63,6.51 0.09,0.74 0.2,1.47 0.31,2.2 -0.46,-0.61 -1.33,-1.7 -1.41,-1.79 -1.36,-1.37 -4.79,-3.23 -6.72,-2.25 a 2.55,2.55 0 0 0 -0.9,3.7 c 0.83,1.29 2.63,1.83 4.07,1.94 a 16.66,16.66 0 0 0 5,-1.11 c 0.19,1.22 0.4,2.42 0.67,3.59 0.13,0.51 0.23,1 0.38,1.5 0.15,0.5 0.27,1 0.41,1.44 0.32,1 0.61,1.87 0.93,2.77 0.16,0.45 0.32,0.87 0.48,1.31 -0.37,-0.69 -1,-1.77 -1.06,-1.86 -1.13,-1.56 -4.24,-3.92 -6.3,-3.25 a 2.56,2.56 0 0 0 -1.44,3.53 c 0.62,1.4 2.32,2.21 3.72,2.54 1.4,0.33 4.89,-0.29 5.29,-0.37 0.4,1.07 0.8,2.11 1.18,3.08 1.23,3.06 2.36,5.56 3.18,7.3 0.82,1.74 1.33,2.72 1.33,2.72 v 0 a 0.75,0.75 0 0 0 1,0.3 0.76,0.76 0 0 0 0.3,-1 c 0,0 -0.51,-0.94 -1.36,-2.65 -0.85,-1.71 -2,-4.15 -3.3,-7.15 -0.37,-0.87 -0.75,-1.79 -1.13,-2.74 0.39,-0.19 3.44,-1.66 4.46,-2.88 1.02,-1.22 1.78,-2.81 1.44,-4.3 z"
         style="fill:#263238"
         id="path66" />
      <path
         d="m 272,248.88 c 0,0 3.23,-2 4.16,-3.41 0.8,-1.21 1.47,-3 1,-4.4 a 2.56,2.56 0 0 0 -3.47,-1.57 c -2,0.92 -2.6,4.77 -2.35,6.69 0,0.16 0.66,2.71 0.66,2.69 z"
         style="fill:#263238"
         id="path68" />
      <path
         d="m 321.22,233 c 1.67,1.24 6.25,2.16 6.25,2.16 0,0 -0.3,-3.2 -0.35,-3.4 -0.53,-2.31 -2.9,-6.47 -5.55,-6.71 a 3.15,3.15 0 0 0 -3.33,3.29 c 0.02,1.83 1.55,3.56 2.98,4.66 z"
         style="fill:#263238"
         id="path70" />
      <path
         d="m 340.22,277.35 c -2.65,0.11 -5.24,4.14 -5.88,6.43 0,0.13 -0.28,1.64 -0.42,2.6 0,-0.58 0,-1.13 0,-1.72 0,-1.17 -0.06,-2.34 -0.11,-3.59 0,-0.6 -0.08,-1.21 -0.13,-1.83 -0.05,-0.62 -0.14,-1.26 -0.21,-1.89 -0.19,-1.47 -0.45,-2.94 -0.75,-4.43 1,0 4.66,-0.11 6.27,-0.85 1.61,-0.74 3.45,-2.14 3.85,-4 a 3.13,3.13 0 0 0 -2.6,-3.89 c -2.64,-0.31 -5.81,3.29 -6.79,5.46 -0.06,0.13 -0.59,1.76 -0.86,2.66 -0.19,-0.89 -0.37,-1.78 -0.58,-2.67 -0.63,-2.58 -1.35,-5.17 -2.05,-7.76 -0.22,-0.79 -0.42,-1.59 -0.63,-2.38 0.57,0 4.73,0 6.49,-0.86 1.76,-0.86 3.45,-2.14 3.85,-4 a 3.14,3.14 0 0 0 -2.6,-3.89 c -2.64,-0.3 -5.8,3.3 -6.78,5.46 -0.08,0.16 -0.84,2.51 -1,3.12 -0.46,-1.75 -0.9,-3.49 -1.26,-5.23 A 54.55,54.55 0 0 1 327,247 c 0.31,0 4.71,0 6.53,-0.86 1.61,-0.74 3.45,-2.14 3.86,-4 a 3.15,3.15 0 0 0 -2.61,-3.89 c -2.64,-0.3 -5.8,3.3 -6.78,5.46 -0.08,0.17 -0.89,2.7 -1,3.16 0,-0.13 0,-0.28 0,-0.42 a 40.45,40.45 0 0 1 0.24,-7.19 c 0.15,-1.32 0.36,-2.58 0.6,-3.79 0.86,0.09 4.68,0.43 6.43,-0.16 1.75,-0.59 3.67,-1.74 4.27,-3.52 a 3.15,3.15 0 0 0 -2.16,-4.15 c -2.6,-0.59 -6.14,2.64 -7.35,4.68 -0.06,0.11 -0.61,1.31 -1,2.2 0.11,-0.55 0.22,-1.12 0.34,-1.64 0.45,-2 1,-3.73 1.46,-5.29 0.28,-0.88 0.55,-1.68 0.81,-2.42 0.87,-0.35 4.35,-1.78 5.61,-3.09 1.26,-1.31 2.45,-3.24 2.16,-5.09 a 3.14,3.14 0 0 0 -3.83,-2.69 c -2.57,0.67 -4.22,5.17 -4.36,7.54 0,0.2 0.18,3.43 0.22,3.41 h 0.05 c -0.26,0.71 -0.54,1.47 -0.83,2.31 -0.51,1.55 -1.08,3.31 -1.57,5.27 a 55.86,55.86 0 0 0 -1.29,6.39 41.08,41.08 0 0 0 -0.4,7.28 v 0.09 c -0.26,-0.73 -1.06,-2.76 -1.14,-2.9 -1.12,-2.1 -4.52,-5.48 -7.13,-5 a 2.88,2.88 0 0 0 -1.54,0.81 2.84,2.84 0 0 0 -1.54,-0.81 c -2.61,-0.47 -6,2.91 -7.12,5 -0.08,0.14 -0.89,2.17 -1.15,2.9 0,0 0,-0.06 0,-0.09 a 41.06,41.06 0 0 0 -0.41,-7.28 58.17,58.17 0 0 0 -1.28,-6.39 c -0.49,-2 -1.06,-3.72 -1.58,-5.27 -0.29,-0.84 -0.56,-1.6 -0.83,-2.31 h 0.05 c 0,0 0.23,-3.21 0.22,-3.41 -0.13,-2.37 -1.79,-6.87 -4.36,-7.54 a 3.14,3.14 0 0 0 -3.83,2.69 c -0.29,1.85 0.93,3.82 2.16,5.09 1.23,1.27 4.74,2.74 5.61,3.09 0.26,0.74 0.53,1.54 0.82,2.42 0.48,1.56 1,3.33 1.45,5.29 0.12,0.52 0.23,1.09 0.35,1.64 -0.39,-0.89 -0.93,-2.09 -1,-2.2 -1.21,-2 -4.75,-5.27 -7.34,-4.68 a 3.14,3.14 0 0 0 -2.16,4.15 c 0.6,1.78 2.58,3 4.26,3.52 1.68,0.52 5.57,0.25 6.44,0.16 0.23,1.21 0.44,2.47 0.59,3.79 a 40.43,40.43 0 0 1 0.25,7.19 c 0,0.14 0,0.29 -0.05,0.42 -0.11,-0.46 -0.93,-3 -1,-3.16 -1,-2.16 -4.15,-5.76 -6.79,-5.46 a 3.14,3.14 0 0 0 -2.6,3.89 c 0.4,1.83 2.24,3.23 3.85,4 1.82,0.84 6.22,0.86 6.53,0.86 a 56.26,56.26 0 0 1 -1.05,7.11 c -0.37,1.74 -0.81,3.48 -1.27,5.23 -0.16,-0.61 -0.92,-3 -1,-3.12 -1,-2.16 -4.15,-5.76 -6.79,-5.46 a 3.14,3.14 0 0 0 -2.6,3.89 c 0.4,1.83 2.24,3.23 3.85,4 1.76,0.81 5.93,0.86 6.49,0.86 -0.21,0.79 -0.41,1.59 -0.63,2.38 -0.7,2.59 -1.42,5.18 -2,7.76 -0.22,0.89 -0.4,1.78 -0.59,2.67 -0.27,-0.9 -0.8,-2.53 -0.86,-2.66 -1,-2.17 -4.15,-5.77 -6.79,-5.46 a 3.14,3.14 0 0 0 -2.6,3.89 c 0.4,1.83 2.24,3.22 3.85,4 1.61,0.78 5.23,0.84 6.27,0.85 -0.3,1.49 -0.56,3 -0.75,4.43 -0.07,0.63 -0.18,1.28 -0.21,1.89 -0.03,0.61 -0.09,1.23 -0.13,1.83 -0.05,1.25 -0.09,2.42 -0.1,3.59 0,0.59 0,1.14 0,1.72 -0.14,-1 -0.39,-2.47 -0.43,-2.6 -0.64,-2.29 -3.22,-6.32 -5.88,-6.43 a 3.15,3.15 0 0 0 -3.16,3.45 c 0.12,1.88 1.73,3.53 3.21,4.51 1.48,0.98 5.6,1.73 6.25,1.83 0,1.41 0,2.77 0,4.05 0.11,4.05 0.35,7.41 0.55,9.77 0.2,2.36 0.37,3.7 0.37,3.7 v 0 0 a 0.94,0.94 0 0 0 1.85,-0.28 c 0,0 -0.19,-1.3 -0.44,-3.63 -0.25,-2.33 -0.56,-5.65 -0.76,-9.65 -0.05,-1.15 -0.1,-2.38 -0.13,-3.64 0.66,-0.06 4.71,-0.47 6.36,-1.41 1.65,-0.94 3.26,-2.43 3.5,-4.29 a 3.15,3.15 0 0 0 -2.93,-3.65 c -2.66,-0.07 -5.5,3.79 -6.29,6 -0.05,0.14 -0.46,1.9 -0.64,2.8 0,-0.76 0,-1.51 0,-2.31 0,-1.13 0,-2.34 0,-3.51 0,-0.6 0.07,-1.21 0.1,-1.83 0.03,-0.62 0.11,-1.22 0.16,-1.83 0.1,-0.91 0.24,-1.83 0.39,-2.76 1.19,0.06 4.58,0.16 6.17,-0.45 1.59,-0.61 3.59,-1.91 4.1,-3.71 a 3.14,3.14 0 0 0 -2.34,-4.05 c -2.61,-0.48 -6,2.91 -7.13,5 l -0.44,1.09 c 0.16,-0.9 0.33,-1.8 0.53,-2.7 0.56,-2.57 1.22,-5.17 1.87,-7.78 l 0.39,-1.63 c 1,0.05 4.68,0.2 6.35,-0.44 1.67,-0.64 3.59,-1.91 4.11,-3.71 a 3.15,3.15 0 0 0 -2.35,-4.05 c -2.61,-0.48 -6,2.91 -7.13,5 0,0.08 -0.26,0.63 -0.51,1.26 0.33,-1.42 0.64,-2.84 0.91,-4.26 a 54.55,54.55 0 0 0 0.92,-7.37 c 0.56,0 4.73,0.26 6.54,-0.44 a 8.15,8.15 0 0 0 3.3,-2.25 8.15,8.15 0 0 0 3.3,2.25 c 1.81,0.7 6,0.47 6.54,0.44 a 56.2,56.2 0 0 0 0.92,7.37 c 0.27,1.42 0.58,2.84 0.91,4.26 -0.25,-0.63 -0.47,-1.18 -0.51,-1.26 -1.12,-2.09 -4.51,-5.48 -7.13,-5 a 3.14,3.14 0 0 0 -2.34,4.05 c 0.52,1.8 2.45,3.07 4.1,3.71 1.65,0.64 5.37,0.49 6.35,0.44 0.13,0.55 0.26,1.09 0.4,1.63 0.64,2.61 1.3,5.21 1.87,7.78 0.2,0.9 0.36,1.8 0.53,2.7 -0.22,-0.55 -0.41,-1 -0.45,-1.09 -1.12,-2.09 -4.51,-5.48 -7.13,-5 a 3.14,3.14 0 0 0 -2.34,4.05 c 0.52,1.8 2.45,3.07 4.1,3.71 1.65,0.64 5,0.51 6.18,0.45 0.14,0.93 0.29,1.85 0.38,2.76 0.06,0.61 0.15,1.2 0.17,1.83 0.02,0.63 0.06,1.23 0.09,1.83 0,1.17 0,2.38 0,3.51 0,0.8 0,1.55 0,2.31 -0.19,-0.9 -0.6,-2.66 -0.65,-2.8 -0.79,-2.24 -3.63,-6.1 -6.29,-6 a 3.15,3.15 0 0 0 -2.93,3.65 c 0.24,1.86 2,3.41 3.5,4.29 1.5,0.88 5.7,1.35 6.36,1.41 0,1.26 -0.07,2.49 -0.13,3.64 -0.19,4 -0.5,7.33 -0.75,9.65 -0.25,2.32 -0.45,3.63 -0.45,3.63 a 0.94,0.94 0 0 0 1.85,0.28 v 0 0 c 0,0 0.17,-1.35 0.38,-3.7 0.21,-2.35 0.44,-5.72 0.54,-9.77 0,-1.28 0.05,-2.64 0.05,-4.05 0.65,-0.1 4.66,-0.77 6.26,-1.83 1.6,-1.06 3.09,-2.63 3.2,-4.51 a 3.15,3.15 0 0 0 -3.25,-3.47 z"
         style="fill:#263238"
         id="path72" />
    </g>
    <g
       id="freepik--Character--inject-1--inject-46">
      <path
         d="m 101.19,328.23 c 0,0 0.17,6.79 1.32,10.43 a 58.71,58.71 0 0 0 3,7.28 c 0,0 -4.3,2.32 -6.29,2.49 -1.99,0.17 -4.63,-8.78 -4.63,-14.9 0,-6.12 2.3,-7.95 6.6,-5.3 z"
         style="fill:#ffffff;stroke:#263238;stroke-width:0.48509px;stroke-linecap:round;stroke-linejoin:round"
         id="path75" />
      <path
         d="m 89.2,310.44 c 0,0 7,-0.26 9.67,1.73 2.67,1.99 3.64,10.76 4.47,14.24 l 0.83,3.48 a 38.68,38.68 0 0 1 -6,1.82 17.41,17.41 0 0 0 -2.32,0.33 c 0,0 -2.11,-12.04 -4.59,-15.56 a 45.61,45.61 0 0 0 -4.14,-5.14 c 0,0 -1.12,-1.34 2.08,-0.9 z"
         style="fill:#ffffff;stroke:#263238;stroke-width:0.48509px;stroke-linecap:round;stroke-linejoin:round"
         id="path77" />
      <path
         d="m 83.48,299.75 a 24,24 0 0 1 -2.65,6.3 c -2,3.31 -2.82,5.62 -8.94,5.79 -6.12,0.17 -9.27,5.16 -11.89,20.03 -2.62,14.87 -4.14,31.29 0.33,41.72 4.47,10.43 17.67,9.41 26.29,6.29 8.62,-3.12 10.6,-12.91 10.76,-23.5 0.16,-10.59 0.17,-27.32 -1.49,-35.77 -1.66,-8.45 -6.45,-10.26 -8.61,-10.92 -2.16,-0.66 0.67,-4.64 0.67,-4.64 z"
         style="fill:#ffffff"
         id="path79" />
      <g
         clip-path="url(#freepik--clip-path-2--inject-1--inject-46)"
         id="g85">
        <path
           d="m 66,332.24 c 0,0 -1.46,4 1.13,7.11 2.59,3.11 9,1.62 7.76,3.07 -1.24,1.45 -6.79,3.24 -7.76,4.69 a 2.3,2.3 0 0 0 -0.16,2.59 c 0,0 -5.1,0.91 -5.46,0.05 -0.36,-0.86 3,-12.91 3,-12.91 z"
           style="opacity:0.4;mix-blend-mode:multiply;fill:#7e57c2"
           id="path81" />
        <path
           d="m 67.56,354.23 c 0,0 -3.55,3.88 -3.39,5 0.16,1.12 3.39,-1.45 2.75,0.16 -0.64,1.61 -3.4,4.21 -4.21,5.5 -0.81,1.29 -4,3.58 -4,3.58 l -1.14,-8.75 -0.22,-1.53 z"
           style="opacity:0.4;mix-blend-mode:multiply;fill:#7e57c2"
           id="path83" />
      </g>
      <path
         d="m 83.48,299.75 a 24,24 0 0 1 -2.65,6.3 c -2,3.31 -2.82,5.62 -8.94,5.79 -6.12,0.17 -9.27,5.16 -11.89,20.03 -2.62,14.87 -4.14,31.29 0.33,41.72 4.47,10.43 17.67,9.41 26.29,6.29 8.62,-3.12 10.6,-12.91 10.76,-23.5 0.16,-10.59 0.17,-27.32 -1.49,-35.77 -1.66,-8.45 -6.45,-10.26 -8.61,-10.92 -2.16,-0.66 0.67,-4.64 0.67,-4.64 z"
         style="fill:none;stroke:#263238;stroke-width:0.48509px;stroke-linecap:round;stroke-linejoin:round"
         id="path87" />
      <path
         d="m 89.2,310.44 a 12.79,12.79 0 0 0 -1.92,-0.75 c -2.15,-0.66 0.67,-4.64 0.67,-4.64 l -4.47,-5.3 a 24,24 0 0 1 -2.65,6.3 c -1.69,2.81 -2.55,4.9 -6.53,5.57 a 18.29,18.29 0 0 1 2.72,6 c 1,4.31 3.14,11.26 7.12,9.61 3.78,-1.57 6.65,-10.64 5.06,-16.79 z"
         style="fill:#ffffff"
         id="path89" />
      <g
         clip-path="url(#freepik--clip-path-3--inject-1--inject-46)"
         id="g93">
        <path
           d="m 78.88,311.54 a 11,11 0 0 1 -3.46,1.64 l -1,-1.71 c 0,0 4.13,0.51 8.26,-9 v 0 A 13.68,13.68 0 0 0 86.4,307 l -4.93,0.63"
           style="opacity:0.4;mix-blend-mode:multiply;fill:#7e57c2"
           id="path91" />
      </g>
      <path
         d="m 89.2,310.44 a 12.79,12.79 0 0 0 -1.92,-0.75 c -2.15,-0.66 0.67,-4.64 0.67,-4.64 l -4.47,-5.3 a 24,24 0 0 1 -2.65,6.3 c -1.69,2.81 -2.55,4.9 -6.53,5.57 a 18.29,18.29 0 0 1 2.72,6 c 1,4.31 3.14,11.26 7.12,9.61 3.78,-1.57 6.65,-10.64 5.06,-16.79 z"
         style="fill:none;stroke:#263238;stroke-width:0.48509px;stroke-linecap:round;stroke-linejoin:round"
         id="path95" />
      <line
         x1="66.410004"
         y1="330.70001"
         x2="71.169998"
         y2="326.47"
         style="fill:none;stroke:#263238;stroke-width:0.48509px;stroke-linecap:round;stroke-linejoin:round"
         id="line97" />
      <path
         d="m 71.89,311.84 c 0,0 1.4,1.92 2.46,7.48 1.06,5.56 4.23,10.59 7.41,11.64 3.18,1.05 4.76,0 4.76,0"
         style="fill:none;stroke:#263238;stroke-width:0.48509px;stroke-linecap:round;stroke-linejoin:round"
         id="path99" />
      <path
         d="m 56.16,330.22 c 0,0 -2.48,22 -2.65,25.82 -0.17,3.82 1.32,2.82 3.81,2.16 2.49,-0.66 16.72,-7 20,-8.12 3.28,-1.12 3.81,-1.49 6.46,-1.16 a 66,66 0 0 0 7,0.67 c 1.66,0 -0.17,-3.81 -2.65,-4.47 -2.48,-0.66 -2.32,-0.5 -5.13,0.16 -2.81,0.66 -7.29,2.65 -12.09,3.64 -4.8,0.99 -8.94,1.33 -9.43,0.83 -0.49,-0.5 3,-14.9 3,-14.9 z"
         style="fill:#ffffff;stroke:#263238;stroke-width:0.48509px;stroke-linecap:round;stroke-linejoin:round"
         id="path101" />
      <path
         d="m 74.3,311.62 a 25.36,25.36 0 0 1 -5.56,0.05 12.19,12.19 0 0 0 -9.27,3.33 c -2.65,2.64 -5,11.25 -6,13.41 -1,2.16 -1.32,3.14 -1.32,3.14 l 12.25,5.3 5.13,-14.57"
         style="fill:#ffffff"
         id="path103" />
      <g
         clip-path="url(#freepik--clip-path-4--inject-1--inject-46)"
         id="g107">
        <path
           d="m 74.17,311.51 a 61.57,61.57 0 0 1 -7.25,0.35 9.92,9.92 0 0 0 -7.6,3.72 c -2.27,2.59 -6.92,15.87 -6.92,15.87 l 2.85,1.22 c 0,0 3.1,-14.5 6.65,-16.76 a 18.51,18.51 0 0 1 10.35,-2.59 c 1,0 2.12,-0.07 2.83,-0.14 z"
           style="opacity:0.4;mix-blend-mode:multiply;fill:#7e57c2"
           id="path105" />
      </g>
      <path
         d="m 74.3,311.62 a 25.36,25.36 0 0 1 -5.56,0.05 12.19,12.19 0 0 0 -9.27,3.33 c -2.65,2.64 -5,11.25 -6,13.41 -1,2.16 -1.32,3.14 -1.32,3.14 l 12.25,5.3 5.13,-14.57"
         style="fill:none;stroke:#263238;stroke-width:0.48509px;stroke-linecap:round;stroke-linejoin:round"
         id="path109" />
      <path
         d="m 58.73,367 c 0,0 5,-4.5 8.47,-4.76"
         style="fill:none;stroke:#263238;stroke-width:0.48509px;stroke-linecap:round;stroke-linejoin:round"
         id="path111" />
      <path
         d="m 67.73,360.08 a 64.45,64.45 0 0 0 -7.15,3.7"
         style="fill:none;stroke:#263238;stroke-width:0.48509px;stroke-linecap:round;stroke-linejoin:round"
         id="path113" />
      <ellipse
         cx="90.660004"
         cy="293.10999"
         rx="14.49"
         ry="8.3199997"
         transform="rotate(-75.87,90.660564,293.10638)"
         style="fill:#ffffff"
         id="ellipse115" />
      <g
         clip-path="url(#freepik--clip-path-5--inject-1--inject-46)"
         id="g119">
        <path
           d="m 86.28,306.86 c -0.56,-1.12 -1.3,-3.81 -0.77,-5.51 0.81,-2.58 5.17,-5.48 5.17,-5.48 0,0 -2,0.48 -4,0.79 -2,0.31 -4.77,0.76 -4.77,0.76 l 0.69,4.84 c 0.93,2.18 2.06,3.96 3.68,4.6 z"
           style="opacity:0.4;mix-blend-mode:multiply;fill:#7e57c2"
           id="path117" />
      </g>
      <ellipse
         cx="90.660004"
         cy="293.10999"
         rx="14.49"
         ry="8.3199997"
         transform="rotate(-75.87,90.660564,293.10638)"
         style="fill:none;stroke:#263238;stroke-width:0.48509px;stroke-linecap:round;stroke-linejoin:round"
         id="ellipse121" />
      <path
         d="m 82.66,302.69 c -0.76,1.5 -3.12,6.18 -5.56,7.72 a 8.13,8.13 0 0 1 -2.23,1"
         style="opacity:0.4;mix-blend-mode:multiply;fill:#7e57c2"
         id="path123" />
      <path
         d="m 86.64,327.23 c 0,0 0.65,9.21 0,11.48 -0.65,2.27 -3.23,2.1 -1.94,3.39 a 27.76,27.76 0 0 0 4.53,3.07 l 2.26,2.27 L 92,344 c 0,0 -1.62,0.49 -3.24,-5.17 a 69.52,69.52 0 0 1 -2.12,-11.6 z"
         style="opacity:0.4;mix-blend-mode:multiply;fill:#7e57c2"
         id="path125" />
      <path
         d="m 94.34,297.14 a 6,6 0 0 0 -1,2.55 c 0,0.3 0,0.57 0,0.79 a 0.73,0.73 0 0 1 -0.78,0.79 l -1.19,-0.09"
         style="fill:none;stroke:#263238;stroke-width:0.48509px;stroke-linecap:round;stroke-linejoin:round"
         id="path127" />
      <path
         d="m 89.25,303.58 a 2.18,2.18 0 0 1 -2.39,-1.8"
         style="fill:none;stroke:#263238;stroke-width:0.48509px;stroke-linecap:round;stroke-linejoin:round"
         id="path129" />
      <path
         d="m 91.05,296.84 -0.6,1.2 a 1.76,1.76 0 0 1 -2.1,-0.45"
         style="fill:none;stroke:#263238;stroke-width:0.48509px;stroke-linecap:round;stroke-linejoin:round"
         id="path131" />
      <path
         d="m 95.83,298.64 -0.89,1.2 c 0,0 -1.2,0 -1.2,-0.9"
         style="fill:none;stroke:#263238;stroke-width:0.48509px;stroke-linecap:round;stroke-linejoin:round"
         id="path133" />
      <path
         d="m 100.57,288 c 2,-5.89 -2.87,-12 -10.14,-11.87 -7.27,0.13 -12.36,7.24 -14.77,12.11 a 35.36,35.36 0 0 0 -5.76,7.59 c -3,5.13 -3,8.11 -5.3,11.42 -2.3,3.31 -9.1,3.48 -13.08,7.79 -3.98,4.31 -4,9.27 -2.15,12.58 1.85,3.31 3,7.61 0.66,10.59 -2.34,2.98 -4.63,7 -2.81,13.75 a 7.59,7.59 0 0 0 6.38,5.84 7,7 0 0 1 -0.09,-1.71 c 0.13,-3 1.65,-16.81 2.32,-22.92 l -3.64,-1.58 c 0,0 0.33,-1 1.32,-3.14 0.99,-2.14 3.31,-10.77 6,-13.41 a 12.19,12.19 0 0 1 9.27,-3.32 25.36,25.36 0 0 0 5.56,-0.05 6.92,6.92 0 0 0 5.3,-3.67 v 0 l 0.26,-0.43 v -0.05 c 0.28,-0.46 0.56,-0.95 0.87,-1.46 a 25.22,25.22 0 0 0 1.84,-3.79 16.61,16.61 0 0 1 -0.8,-4.84 c 3.26,-0.11 12.28,-0.91 16.84,-6.27 0.27,-0.33 0.52,-0.66 0.74,-1 a 24.23,24.23 0 0 1 -0.72,5 20.23,20.23 0 0 1 -5.47,9.92 l -0.48,0.41 -0.3,0.24 c -0.15,0.11 -0.29,0.22 -0.44,0.31 a 3,3 0 0 1 -0.33,0.21 4.64,4.64 0 0 1 -0.42,0.25 l -0.35,0.18 -0.42,0.18 -0.35,0.13 -0.42,0.13 -0.35,0.09 a 5.11,5.11 0 0 1 -2.27,0 l -0.29,-0.1 a 2.94,2.94 0 0 0 -0.29,1.95 1,1 0 0 0 0.73,0.68 v 0 a 12.52,12.52 0 0 1 1.87,0.73 85.5,85.5 0 0 1 -2,12 c -1.66,6.95 0.16,13.57 2.15,18.37 1.99,4.8 8.11,7.78 10.26,5 2.15,-2.78 1.49,-5.79 0.17,-12.42 -1.32,-6.63 -4.8,-16.22 -4.8,-23.51 0,-7.29 4.3,-9.6 6.46,-13.9 1.55,-3.11 0.17,-6.39 -0.76,-8.01 z"
         style="fill:#263238"
         id="path135" />
      <path
         d="m 98.55,285.77 c 0,0 -7.64,6.69 -15,7.41 -7.36,0.72 -8.12,0.71 -8.12,0.71"
         style="fill:none;stroke:#ffffff;stroke-width:0.345985px;stroke-linecap:round;stroke-linejoin:round"
         id="path137" />
      <path
         d="m 96.88,280.75 c 0,0 -6.93,7.89 -12.66,9.8 -5.73,1.91 -8.12,1.91 -8.12,1.91"
         style="fill:none;stroke:#ffffff;stroke-width:0.345985px;stroke-linecap:round;stroke-linejoin:round"
         id="path139" />
      <path
         d="m 92.82,277.89 c 0,0 -1.91,6 -6.45,8.84"
         style="fill:none;stroke:#ffffff;stroke-width:0.345985px;stroke-linecap:round;stroke-linejoin:round"
         id="path141" />
      <path
         d="m 79.68,300.34 c 0,0 -0.24,7.65 -4.54,8.84 -4.3,1.19 -9.07,-1.19 -14.57,1.67 A 12,12 0 0 0 54.36,323"
         style="fill:none;stroke:#ffffff;stroke-width:0.345985px;stroke-linecap:round;stroke-linejoin:round"
         id="path143" />
      <path
         d="m 52.69,355.28 a 13.69,13.69 0 0 1 -1.91,-11.46 c 1.91,-6.45 3.34,-8.84 3.34,-8.84"
         style="fill:none;stroke:#ffffff;stroke-width:0.345985px;stroke-linecap:round;stroke-linejoin:round"
         id="path145" />
      <path
         d="m 95,312.76 c 0,0 1.19,9.08 -2.87,14.81 -4.06,5.73 -1.43,13.62 -1.43,13.62"
         style="fill:none;stroke:#ffffff;stroke-width:0.345985px;stroke-linecap:round;stroke-linejoin:round"
         id="path147" />
      <path
         d="m 95.21,304.4 c 0,0 0.24,2.63 -3.11,9.32 -3.35,6.69 -4.3,8.84 -4.54,13.62"
         style="fill:none;stroke:#ffffff;stroke-width:0.345985px;stroke-linecap:round;stroke-linejoin:round"
         id="path149" />
      <path
         d="m 118.14,380.46 c 0,0 5.37,-0.52 8.48,0.86 3.11,1.38 3.81,3.63 4.5,1.56 0.69,-2.07 0.69,-3.29 -1.9,-4.67 -2.59,-1.38 -3.64,-0.52 -4.67,-1.56 a 7.54,7.54 0 0 0 -1.73,-1.38 c 0,0 -2.77,-0.35 -2.95,1.21 -0.18,1.56 -2.76,2.07 -2.76,2.07 z"
         style="fill:#ffffff;stroke:#263238;stroke-width:0.48509px;stroke-miterlimit:10"
         id="path151" />
      <path
         d="m 140.59,339.82 c -1.82,-4.14 -9.41,-1.3 -18.21,5.79 -11.39,9.18 -20.24,11.32 -25,11.69 v -0.15 c -2.48,-1.16 -6,-1.21 -10.19,-0.53 -0.13,-0.19 -0.26,-0.38 -0.38,-0.58 -8,-12.41 -10.1,-14.56 -12.75,-12.41 -2.65,2.15 -5.63,5.46 -4.64,15.73 a 15,15 0 0 0 0.46,2.39 66.5,66.5 0 0 0 -11.18,6.73 29.67,29.67 0 0 0 1.62,5.11 c 4.45,10.4 17.63,9.45 26.24,6.32 a 25.5,25.5 0 0 0 8.36,2.79 c 6.82,0.85 11.43,0.6 14.13,-0.43 l 4.58,3.74 a 71.64,71.64 0 0 0 18,-20 101.48,101.48 0 0 0 6.06,-12 c 2.85,-6.45 3.82,-12.11 2.9,-14.19 z"
         style="fill:#263238"
         id="path153" />
      <path
         d="m 86.79,356 a 44.34,44.34 0 0 0 3.12,4.29 l 31.09,-5.58 -9.79,-7.84 -27.73,4.06 c 0.95,1.46 2.06,3.16 3.31,5.07 z"
         style="fill:#7e57c2;stroke:#263238;stroke-width:0.48509px;stroke-linecap:round;stroke-linejoin:round"
         id="path155" />
      <path
         d="m 86.79,356 a 44.34,44.34 0 0 0 3.12,4.29 l 31.09,-5.58 -9.79,-7.84 -27.73,4.06 c 0.95,1.46 2.06,3.16 3.31,5.07 z"
         style="opacity:0.5;fill:#ffffff;stroke:#263238;stroke-width:0.52825px;stroke-linecap:round;stroke-linejoin:round"
         id="path157" />
      <path
         d="M 93.71,337.63 88.87,359 c 0.34,0.45 0.69,0.89 1,1.32 l 31.13,-5.61 6.15,-22.38 z"
         style="fill:#7e57c2;stroke:#263238;stroke-width:0.48509px;stroke-linecap:round;stroke-linejoin:round"
         id="path159" />
      <path
         d="m 109.55,350.06 a 3.18,3.18 0 1 1 2.17,-4 3.24,3.24 0 0 1 -2.17,4 z"
         style="fill:#ffffff"
         id="path161" />
      <path
         d="M 93.71,337.63 88.87,359 c 0.34,0.45 0.69,0.89 1,1.32 l 31.13,-5.61 6.15,-22.38 z"
         style="opacity:0.5;fill:#ffffff;stroke:#263238;stroke-width:0.52825px;stroke-linecap:round;stroke-linejoin:round"
         id="path163" />
      <path
         d="m 109.55,350.06 a 3.18,3.18 0 1 1 2.17,-4 3.24,3.24 0 0 1 -2.17,4 z"
         style="fill:#ffffff;stroke:#263238;stroke-width:0.52825px;stroke-linecap:round;stroke-linejoin:round"
         id="path165" />
      <path
         d="m 108,380.53 c 0,0 -4.28,3.18 -6.69,4.5 -2.41,1.32 -3.18,0.87 -5.49,3.07 -2.31,2.2 -4.27,3.73 -4.82,4.61 -0.55,0.88 -1.21,1.75 -1.54,-0.22 a 5.84,5.84 0 0 1 2.2,-5.38 c 1.53,-1.1 3.62,-1.54 3.62,-3 a 2.45,2.45 0 0 1 2.19,-2.63 c 1.21,0 2,1.2 4.28,0 a 10.54,10.54 0 0 0 3.73,-3.95 z"
         style="fill:#ffffff;stroke:#263238;stroke-width:0.48509px;stroke-miterlimit:10"
         id="path167" />
      <path
         d="m 70.14,362.85 c 0,0 4.73,11.31 15.63,16.45"
         style="fill:none;stroke:#ffffff;stroke-width:0.345985px;stroke-miterlimit:10"
         id="path169" />
      <path
         d="m 106.91,372.11 c 0,0 6.77,-3.39 16.69,-20.53"
         style="fill:none;stroke:#ffffff;stroke-width:0.345985px;stroke-miterlimit:10"
         id="path171" />
      <path
         d="m 88.76,359.35 c 0,0 7.17,10.51 15.53,14.09"
         style="fill:none;stroke:#ffffff;stroke-width:0.345985px;stroke-miterlimit:10"
         id="path173" />
    </g>
    <g
       id="freepik--Mobile--inject-1--inject-46">
      <rect
         x="148.37"
         y="252.35001"
         width="76.739998"
         height="144.96001"
         rx="7.6700001"
         style="fill:#263238"
         id="rect176" />
      <rect
         x="151.78"
         y="268.26999"
         width="69.919998"
         height="113.13"
         style="fill:#ffffff"
         id="rect178" />
      <g
         clip-path="url(#freepik--clip-path-6--inject-1--inject-46)"
         id="g182">
        <polygon
           points="221.7,381.39 221.7,343.38 156.52,381.39 "
           style="opacity:0.4;mix-blend-mode:multiply;fill:#7e57c2"
           id="polygon180" />
      </g>
      <rect
         x="151.78"
         y="268.26999"
         width="69.919998"
         height="113.13"
         style="fill:none;stroke:#263238;stroke-width:0.52825px;stroke-miterlimit:10"
         id="rect184" />
      <path
         d="m 194.34,260.35 h -15.2 a 1,1 0 0 1 -1,-1 v 0 a 1,1 0 0 1 1,-1 h 15.2 a 1,1 0 0 1 1,1 v 0 a 1,1 0 0 1 -1,1 z"
         style="fill:#7e57c2"
         id="path186" />
      <path
         d="m 194.34,260.35 h -15.2 a 1,1 0 0 1 -1,-1 v 0 a 1,1 0 0 1 1,-1 h 15.2 a 1,1 0 0 1 1,1 v 0 a 1,1 0 0 1 -1,1 z"
         style="opacity:0.4;fill:#ffffff"
         id="path188" />
      <path
         d="m 190.89,387.78 a 4.15,4.15 0 1 0 -4.15,4.15 4.15,4.15 0 0 0 4.15,-4.15 z"
         style="fill:#7e57c2;stroke:#263238;stroke-width:0.704333px;stroke-miterlimit:10"
         id="path190" />
      <rect
         x="184.64"
         y="385.67999"
         width="4.1999998"
         height="4.1999998"
         style="fill:#7e57c2;stroke:#263238;stroke-width:0.52825px;stroke-linecap:round;stroke-linejoin:round"
         id="rect192" />
      <rect
         x="184.64"
         y="385.67999"
         width="4.1999998"
         height="4.1999998"
         style="opacity:0.6;fill:#ffffff;stroke:#263238;stroke-width:0.52825px;stroke-linecap:round;stroke-linejoin:round"
         id="rect194" />
      <rect
         x="184.64"
         y="385.67999"
         width="4.1999998"
         height="4.1999998"
         style="fill:none;stroke:#263238;stroke-width:0.52825px;stroke-linecap:round;stroke-linejoin:round"
         id="rect196" />
    </g>
    <g
       id="freepik--Tablet--inject-1--inject-46">
      <rect
         x="263.64999"
         y="236.13"
         width="111.83"
         height="211.23"
         rx="11.18"
         transform="rotate(90,319.56,341.75)"
         style="fill:#7e57c2;stroke:#263238;stroke-width:0.868674px;stroke-miterlimit:10"
         id="rect199" />
      <rect
         x="268.62"
         y="247.39"
         width="101.89"
         height="188.71001"
         transform="rotate(90,319.56,341.75)"
         style="fill:#ffffff"
         id="rect201" />
      <g
         clip-path="url(#freepik--clip-path-7--inject-1--inject-46)"
         id="g205">
        <polygon
           points="413.92,392.69 413.92,311.26 274.29,392.69 "
           style="opacity:0.4;mix-blend-mode:multiply;fill:#7e57c2"
           id="polygon203" />
      </g>
      <rect
         x="268.62"
         y="247.39"
         width="101.89"
         height="188.71001"
         transform="rotate(90,319.56,341.75)"
         style="fill:none;stroke:#263238;stroke-width:0.651505px;stroke-miterlimit:10"
         id="rect207" />
      <path
         d="m 419,343.28 a 1.54,1.54 0 1 1 1.54,-1.53 1.54,1.54 0 0 1 -1.54,1.53 z"
         style="fill:#263238"
         id="path209" />
      <rect
         x="391.29001"
         y="285.82999"
         width="7.4899998"
         height="1.02"
         rx="0.37"
         transform="rotate(180,395.035,286.345)"
         style="fill:#7e57c2;stroke:#263238;stroke-width:0.652671px;stroke-miterlimit:10"
         id="rect211" />
      <path
         d="m 367.82,286.85 h 12.93 a 0.51,0.51 0 0 0 0.52,-0.51 v 0 a 0.51,0.51 0 0 0 -0.52,-0.51 h -12.93 a 0.51,0.51 0 0 0 -0.51,0.51 v 0 a 0.51,0.51 0 0 0 0.51,0.51 z"
         style="fill:#7e57c2;stroke:#263238;stroke-width:0.652671px;stroke-miterlimit:10"
         id="path213" />
    </g>
    <g
       id="freepik--plants-2--inject-1--inject-46">
      <path
         d="m 403.35,400.5 c 0,1.49 -8.92,2.7 -19.92,2.7 -11,0 -19.93,-1.2 -19.93,-2.7 0,-1.5 8.92,-2.71 19.93,-2.71 11.01,0 19.92,1.21 19.92,2.71 z"
         style="fill:#7e57c2"
         id="path216" />
      <path
         d="m 366.28,360.42 c 0,22.76 18,41.2 18,41.2 0,0 18,-18.44 18,-41.2 0,-22.76 -18,-41.2 -18,-41.2 0,0 -18,18.44 -18,41.2 z"
         style="fill:#263238"
         id="path218" />
      <line
         x1="384.31"
         y1="401.62"
         x2="384.31"
         y2="319.22"
         style="fill:none;stroke:#ffffff;stroke-width:0.738px;stroke-miterlimit:10"
         id="line220" />
      <line
         x1="384.31"
         y1="348.51001"
         x2="374.20999"
         y2="339.70001"
         style="fill:none;stroke:#ffffff;stroke-width:0.738px;stroke-miterlimit:10"
         id="line222" />
      <line
         x1="384.47"
         y1="362.13"
         x2="396.95999"
         y2="344.01999"
         style="fill:none;stroke:#ffffff;stroke-width:0.738px;stroke-miterlimit:10"
         id="line224" />
      <line
         x1="384.31"
         y1="369.98001"
         x2="369.41"
         y2="356.67999"
         style="fill:none;stroke:#ffffff;stroke-width:0.738px;stroke-miterlimit:10"
         id="line226" />
      <line
         x1="384.47"
         y1="380.54999"
         x2="399.20999"
         y2="367.41"
         style="fill:none;stroke:#ffffff;stroke-width:0.738px;stroke-miterlimit:10"
         id="line228" />
      <line
         x1="384.47"
         y1="389.67999"
         x2="372.92999"
         y2="380.54999"
         style="fill:none;stroke:#ffffff;stroke-width:0.738px;stroke-miterlimit:10"
         id="line230" />
      <path
         d="m 353.79,390 c 8.76,9.88 23.67,10.94 23.67,10.94 0,0 0.73,-14.93 -8,-24.81 -8.73,-9.88 -23.67,-10.94 -23.67,-10.94 0,0 -0.79,14.98 8,24.81 z"
         style="fill:#263238"
         id="path232" />
      <line
         x1="377.45999"
         y1="400.98001"
         x2="345.76001"
         y2="365.23001"
         style="fill:none;stroke:#ffffff;stroke-width:0.738px;stroke-miterlimit:10"
         id="line234" />
      <line
         x1="357.03"
         y1="377.94"
         x2="349.26001"
         y2="378"
         style="fill:none;stroke:#ffffff;stroke-width:0.738px;stroke-miterlimit:10"
         id="line236" />
      <line
         x1="362.34"
         y1="383.79001"
         x2="360.79001"
         y2="371.13"
         style="fill:none;stroke:#ffffff;stroke-width:0.738px;stroke-miterlimit:10"
         id="line238" />
      <line
         x1="365.29001"
         y1="387.25"
         x2="353.70999"
         y2="387.22"
         style="fill:none;stroke:#ffffff;stroke-width:0.738px;stroke-miterlimit:10"
         id="line240" />
      <line
         x1="369.42999"
         y1="391.78"
         x2="370.76999"
         y2="380.41"
         style="fill:none;stroke:#ffffff;stroke-width:0.738px;stroke-miterlimit:10"
         id="line242" />
      <line
         x1="372.94"
         y1="395.73999"
         x2="364.42001"
         y2="396.22"
         style="fill:none;stroke:#ffffff;stroke-width:0.738px;stroke-miterlimit:10"
         id="line244" />
      <path
         d="m 399.73,375.83 c -9.2,9.46 -9.15,24.42 -9.15,24.42 0,0 14.95,-0.39 24.14,-9.86 9.19,-9.47 9.15,-24.39 9.15,-24.39 0,0 -14.95,0.36 -24.14,9.83 z"
         style="fill:#263238"
         id="path246" />
      <line
         x1="390.57999"
         y1="400.25"
         x2="423.87"
         y2="365.97"
         style="fill:none;stroke:#ffffff;stroke-width:0.738px;stroke-miterlimit:10"
         id="line248" />
      <line
         x1="412.04001"
         y1="378.14999"
         x2="411.39999"
         y2="370.41"
         style="fill:none;stroke:#ffffff;stroke-width:0.738px;stroke-miterlimit:10"
         id="line250" />
      <line
         x1="406.60001"
         y1="383.88"
         x2="419.10999"
         y2="381.39999"
         style="fill:none;stroke:#ffffff;stroke-width:0.738px;stroke-miterlimit:10"
         id="line252" />
      <line
         x1="403.35999"
         y1="387.07999"
         x2="402.54001"
         y2="375.53"
         style="fill:none;stroke:#ffffff;stroke-width:0.738px;stroke-miterlimit:10"
         id="line254" />
      <line
         x1="399.16"
         y1="391.54999"
         x2="410.60001"
         y2="392.03"
         style="fill:none;stroke:#ffffff;stroke-width:0.738px;stroke-miterlimit:10"
         id="line256" />
      <line
         x1="395.47"
         y1="395.35001"
         x2="394.35999"
         y2="386.89001"
         style="fill:none;stroke:#ffffff;stroke-width:0.738px;stroke-miterlimit:10"
         id="line258" />
    </g>
  </g>
</svg>
