<svg id="wave" style="transform:rotate(0deg); transition: 0.3s" viewBox="0 0 1440 270" version="1.1" xmlns="http://www.w3.org/2000/svg"><defs><linearGradient id="sw-gradient-0" x1="0" x2="0" y1="1" y2="0"><stop stop-color="rgba(74, 0, 224, 1)" offset="0%"></stop><stop stop-color="rgba(142, 45, 226, 1)" offset="100%"></stop></linearGradient></defs><path style="transform:translate(0, 0px); opacity:1" fill="url(#sw-gradient-0)" d="M0,108L288,81L576,243L864,54L1152,135L1440,108L1728,135L2016,0L2304,189L2592,54L2880,216L3168,108L3456,54L3744,54L4032,108L4320,81L4608,216L4896,189L5184,81L5472,243L5760,27L6048,216L6336,27L6624,54L6912,27L6912,270L6624,270L6336,270L6048,270L5760,270L5472,270L5184,270L4896,270L4608,270L4320,270L4032,270L3744,270L3456,270L3168,270L2880,270L2592,270L2304,270L2016,270L1728,270L1440,270L1152,270L864,270L576,270L288,270L0,270Z"></path><defs><linearGradient id="sw-gradient-1" x1="0" x2="0" y1="1" y2="0"><stop stop-color="rgba(74, 0, 224, 1)" offset="0%"></stop><stop stop-color="rgba(142, 45, 226, 1)" offset="100%"></stop></linearGradient></defs><path style="transform:translate(0, 50px); opacity:0.9" fill="url(#sw-gradient-1)" d="M0,27L288,189L576,54L864,108L1152,189L1440,108L1728,0L2016,81L2304,162L2592,216L2880,189L3168,216L3456,0L3744,54L4032,54L4320,54L4608,243L4896,108L5184,108L5472,162L5760,243L6048,135L6336,135L6624,54L6912,216L6912,270L6624,270L6336,270L6048,270L5760,270L5472,270L5184,270L4896,270L4608,270L4320,270L4032,270L3744,270L3456,270L3168,270L2880,270L2592,270L2304,270L2016,270L1728,270L1440,270L1152,270L864,270L576,270L288,270L0,270Z"></path><defs><linearGradient id="sw-gradient-2" x1="0" x2="0" y1="1" y2="0"><stop stop-color="rgba(74, 0, 224, 1)" offset="0%"></stop><stop stop-color="rgba(142, 45, 226, 1)" offset="100%"></stop></linearGradient></defs><path style="transform:translate(0, 100px); opacity:0.8" fill="url(#sw-gradient-2)" d="M0,189L288,0L576,135L864,243L1152,216L1440,216L1728,54L2016,108L2304,243L2592,135L2880,81L3168,216L3456,81L3744,108L4032,108L4320,189L4608,108L4896,216L5184,216L5472,54L5760,135L6048,54L6336,54L6624,135L6912,189L6912,270L6624,270L6336,270L6048,270L5760,270L5472,270L5184,270L4896,270L4608,270L4320,270L4032,270L3744,270L3456,270L3168,270L2880,270L2592,270L2304,270L2016,270L1728,270L1440,270L1152,270L864,270L576,270L288,270L0,270Z"></path></svg>